<?xml version='1.0' encoding='utf-8'?>
<!DOCTYPE svg PUBLIC '-//W3C//DTD SVG 1.1//EN' 'http://www.w3.org/Graphics/SVG/1.1/DTD/svg11.dtd'>
<svg version="1.1" xmlns="http://www.w3.org/2000/svg" viewBox="0 0 512 512" xmlns:xlink="http://www.w3.org/1999/xlink" enable-background="new 0 0 512 512">
  <g>
    <path d="m454.2,255.6c28.2-14.2 47.5-43.4 47.5-77.1 0-46.2-36.2-83.9-81.9-86.1-2.2-45.6-39.9-81.9-86.1-81.9-33.7,0-62.9,19.4-77.1,47.5-14.2-28.2-43.4-47.5-77.1-47.5-46.2,0-83.9,36.2-86.1,81.9-45.6,2.2-81.9,39.9-81.9,86.1 0,33.7 19.4,62.9 47.5,77.1-28.2,14.2-47.5,43.4-47.5,77.1 0,46.2 36.2,83.9 81.9,86.1 2.2,45.6 39.9,81.9 86.1,81.9 33.7,0 62.9-19.4 77.1-47.5 14.2,28.2 43.4,47.5 77.1,47.5 46.2,0 83.9-36.2 86.1-81.9 45.6-2.2 81.9-39.9 81.9-86.1 5.68434e-14-33.7-19.3-62.9-47.5-77.1zm-160.3-172.8v1.42109e-14c5.8-16.5 21.5-28.3 39.9-28.3 23.4,0 42.5,19.3 42.3,42.7-0.1,4.7-0.9,9.2-2.3,13.4-2.7,7.6-0.7,16.1 5,21.8 5.7,5.7 14.2,7.7 21.8,5 4.2-1.5 8.7-2.3 13.4-2.3 23.4-0.3 42.7,18.8 42.7,42.3 0,18.4-11.8,34.1-28.3,39.9l-66.2,21.1c-3.5-21.4-13.4-42-29.9-58.5-16.9-16.9-37.9-26.9-59.8-30.1l21.4-67zm-238.2,93.4c1.2-21.9 19.3-39.4 41.2-39.9 5.2-0.1 10.2,0.7 14.9,2.3 7.6,2.7 16.1,0.7 21.8-5 5.7-5.7 7.7-14.2 5-21.8-1.6-4.6-2.5-9.7-2.3-14.9 0.5-21.9 18-40 39.9-41.2 19.4-1 36.2,11.1 42.3,28.2l21.1,66.2c-21.4,3.5-42,13.4-58.5,29.9-16.9,16.9-26.9,37.9-30.1,59.8l-67-21.3c-17.2-6.1-29.3-22.8-28.3-42.3zm163.9,252.2h2.84217e-14c-6.1,17.2-22.8,29.2-42.3,28.2-21.9-1.2-39.4-19.3-39.9-41.2-0.1-5.2 0.7-10.3 2.3-14.9 2.7-7.6 0.7-16.1-5-21.8-5.7-5.7-14.2-7.7-21.8-5-4.7,1.6-9.7,2.5-14.9,2.3-21.9-0.5-40-18-41.2-39.9-1-19.4 11.1-36.2 28.2-42.3l66.2-21.1c3.5,21.4 13.4,42 29.9,58.5 16.9,16.9 37.9,26.9 59.8,30.1l-21.3,67.1zm-8.7-126.9c-25.3-25.3-25.3-66.4 0-91.8 25.3-25.3 66.4-25.3 91.8,0 25.3,25.3 25.3,66.4 0,91.8-25.4,25.3-66.5,25.3-91.8,0zm204.2,73.4c-4.7-0.1-9.2-0.9-13.4-2.3-7.6-2.7-16.1-0.7-21.8,5-5.7,5.7-7.7,14.2-5,21.8 1.5,4.2 2.3,8.7 2.3,13.4 0.3,23.4-18.8,42.7-42.3,42.7-18.4,0-34.1-11.8-39.9-28.3l-21.1-66.2c21.4-3.5 42-13.4 58.5-29.9 16.9-16.9 26.9-37.9 30.1-59.8l67.1,21.4c16.5,5.8 28.3,21.5 28.3,39.9-0.1,23.5-19.4,42.6-42.8,42.3z"/>
  </g>
</svg>
